M48
;Layer_Color=9474304
;FILE_FORMAT=4:4
METRIC,LZ
;TYPE=PLATED
T1F00S00C0.3000
T2F00S00C1.5000
%
T01
X00108Y0013
X00111175Y00143475
Y00156175
X0014Y00169
X00139945Y00199825
X00132Y00246
X0015
X00174Y00245
X00195159Y00227481
X00219Y00244
Y00253
X00241
X002535Y00241
X00265Y00229
X00242
X00245Y002
X00218Y00202
X00224Y00175
X00202Y00182
X00203Y00155
X00252Y00157
X00314Y00185
X00311Y00208
X00337
X00338Y00233
X00337Y00258
X00286Y00265432
X00292Y0029
Y003105
X00245Y00315
X00224Y00304
X00216Y00288
X00201Y00321
Y00345393
X00131Y00371
X00111175Y00383475
X00111Y00396
X0014Y00395
X00139945Y00439825
X0016Y0029
X00257Y00279
X00266Y00253
X002975Y002325
X00284Y00216
X003675Y00209
Y00184
X00347Y00185
X00405Y00184
Y00209
Y0029
Y00315
X003675
Y0029
X00352Y0036
X00315Y0036
X00325Y00337
X00288Y00397
X00367Y00142
T02
X0005Y002
Y003
X0045
Y0036
Y002
Y0014
M30
