G04*
G04 #@! TF.GenerationSoftware,Altium Limited,Altium Designer,23.3.1 (30)*
G04*
G04 Layer_Color=32896*
%FSLAX44Y44*%
%MOMM*%
G71*
G04*
G04 #@! TF.SameCoordinates,C8A1A2A4-FEEE-4BAA-8DF6-72F1B62B13C7*
G04*
G04*
G04 #@! TF.FilePolarity,Positive*
G04*
G01*
G75*
%ADD10C,0.2000*%
%ADD11C,0.2540*%
D10*
X279500Y262000D02*
Y265000D01*
Y215000D02*
Y220000D01*
X274500Y215000D02*
X279500D01*
X227500D02*
X232500D01*
X227500D02*
Y220000D01*
Y262000D02*
Y267000D01*
X232500D01*
X274500D02*
X277500D01*
X279500Y265000D01*
X247500Y387005D02*
X281500D01*
Y407005D01*
X247500Y387005D02*
Y407005D01*
X281500D01*
X247500Y384003D02*
X281500D01*
X247500Y364003D02*
Y384003D01*
X281500Y364003D02*
Y384003D01*
X247500Y364003D02*
X281500D01*
X247500Y361002D02*
X281500D01*
X247500Y341002D02*
Y361002D01*
X281500Y341002D02*
Y361002D01*
X247500Y341002D02*
X281500D01*
X247000Y318000D02*
X281000D01*
Y338000D01*
X247000Y318000D02*
Y338000D01*
X281000D01*
X235000Y278500D02*
Y312500D01*
Y278500D02*
X255000D01*
X235000Y312500D02*
X255000D01*
Y278500D02*
Y312500D01*
X324500Y341000D02*
Y361000D01*
X300250Y341000D02*
X324500D01*
X287500D02*
X300250D01*
X287500D02*
Y344500D01*
Y361000D02*
X324500D01*
X287500Y344500D02*
Y361000D01*
X295500Y333000D02*
X329500D01*
X295500Y313000D02*
Y333000D01*
X329500Y313000D02*
Y333000D01*
X295500Y313000D02*
X329500D01*
X282000Y272000D02*
X302000D01*
X282000D02*
Y296250D01*
Y309000D01*
X285500D01*
X302000Y272000D02*
Y309000D01*
X285500D02*
X302000D01*
X310000Y275000D02*
Y309000D01*
Y275000D02*
X330000D01*
X310000Y309000D02*
X330000D01*
Y275000D02*
Y309000D01*
X334500Y247000D02*
Y267000D01*
X310250Y247000D02*
X334500D01*
X297500D02*
X310250D01*
X297500D02*
Y250500D01*
Y267000D02*
X334500D01*
X297500Y250500D02*
Y267000D01*
X297500Y223000D02*
Y243000D01*
X321750D01*
X334500D01*
Y239500D02*
Y243000D01*
X297500Y223000D02*
X334500D01*
Y239500D01*
X286000Y196000D02*
Y220000D01*
Y196000D02*
X334000D01*
X286000Y220000D02*
X334000D01*
Y196000D02*
Y220000D01*
X317000Y158500D02*
Y192500D01*
Y158500D02*
X337000D01*
X317000Y192500D02*
X337000D01*
Y158500D02*
Y192500D01*
X311000Y158500D02*
Y192500D01*
X291000D02*
X311000D01*
X291000Y158500D02*
X311000D01*
X291000D02*
Y192500D01*
X266000Y158500D02*
Y192500D01*
Y158500D02*
X286000D01*
X266000Y192500D02*
X286000D01*
Y158500D02*
Y192500D01*
X262000Y158500D02*
Y192500D01*
X242000D02*
X262000D01*
X242000Y158500D02*
X262000D01*
X242000D02*
Y192500D01*
X237000Y158500D02*
Y192500D01*
X217000D02*
X237000D01*
X217000Y158500D02*
X237000D01*
X217000D02*
Y192500D01*
X210500Y183958D02*
Y200457D01*
X173500Y183958D02*
X210500D01*
Y200457D02*
Y203958D01*
X197750D02*
X210500D01*
X173500D02*
X197750D01*
X173500Y183958D02*
Y203958D01*
X176500Y228500D02*
X210500D01*
X176500Y208500D02*
Y228500D01*
X210500Y208500D02*
Y228500D01*
X176500Y208500D02*
X210500D01*
X213000Y235000D02*
Y255000D01*
X188750Y235000D02*
X213000D01*
X176000D02*
X188750D01*
X176000D02*
Y238500D01*
Y255000D02*
X213000D01*
X176000Y238500D02*
Y255000D01*
X172500Y265000D02*
X206500D01*
Y285000D01*
X172500Y265000D02*
Y285000D01*
X206500D01*
X172500Y298500D02*
Y318500D01*
X196750D01*
X209500D01*
Y315000D02*
Y318500D01*
X172500Y298500D02*
X209500D01*
Y315000D01*
X133000Y256000D02*
X167000D01*
X133000Y236000D02*
Y256000D01*
X167000Y236000D02*
Y256000D01*
X133000Y236000D02*
X167000D01*
X133000Y285000D02*
X167000D01*
X133000Y265000D02*
Y285000D01*
X167000Y265000D02*
Y285000D01*
X133000Y265000D02*
X167000D01*
X132500Y299000D02*
X166500D01*
Y319000D01*
X132500Y299000D02*
Y319000D01*
X166500D01*
X132500Y342000D02*
X166500D01*
X132500Y322000D02*
Y342000D01*
X166500Y322000D02*
Y342000D01*
X132500Y322000D02*
X166500D01*
D11*
X269000Y273000D02*
Y286000D01*
X187000Y323000D02*
Y340000D01*
X167000Y360000D02*
X187000Y340000D01*
X167000Y360000D02*
X167000D01*
X148000Y408000D02*
X183000D01*
X147000Y407000D02*
X148000Y408000D01*
X147000Y361000D02*
Y407000D01*
Y361000D02*
X183000D01*
Y408000D01*
X163500Y189500D02*
X169000Y195000D01*
X163500Y170000D02*
Y189500D01*
X148000Y170000D02*
X179000D01*
X141000Y163000D02*
X148000Y170000D01*
X141000Y98000D02*
Y163000D01*
Y98000D02*
X179000D01*
Y170000D01*
X275618Y289843D02*
X262922D01*
X260382Y292383D01*
Y297461D01*
X262922Y300000D01*
X275618D01*
X260382Y305078D02*
Y310157D01*
Y307618D01*
X275618D01*
X273078Y305078D01*
X319382Y109956D02*
X334618D01*
Y117574D01*
X332078Y120113D01*
X327000D01*
X324461Y117574D01*
Y109956D01*
Y115035D02*
X319382Y120113D01*
Y125191D02*
Y130270D01*
Y127730D01*
X334618D01*
X332078Y125191D01*
X334618Y137887D02*
Y148044D01*
X332078D01*
X321922Y137887D01*
X319382D01*
X242044Y389383D02*
Y404618D01*
X234426D01*
X231887Y402078D01*
Y397000D01*
X234426Y394461D01*
X242044D01*
X236966D02*
X231887Y389383D01*
X226809D02*
X221730D01*
X224270D01*
Y404618D01*
X226809Y402078D01*
X214113D02*
X211574Y404618D01*
X206495D01*
X203956Y402078D01*
Y399539D01*
X206495Y397000D01*
X203956Y394461D01*
Y391922D01*
X206495Y389383D01*
X211574D01*
X214113Y391922D01*
Y394461D01*
X211574Y397000D01*
X214113Y399539D01*
Y402078D01*
X211574Y397000D02*
X206495D01*
X242044Y365382D02*
Y380617D01*
X234426D01*
X231887Y378078D01*
Y373000D01*
X234426Y370461D01*
X242044D01*
X236966D02*
X231887Y365382D01*
X226809D02*
X221730D01*
X224270D01*
Y380617D01*
X226809Y378078D01*
X203956Y380617D02*
X214113D01*
Y373000D01*
X209035Y375539D01*
X206495D01*
X203956Y373000D01*
Y367922D01*
X206495Y365382D01*
X211574D01*
X214113Y367922D01*
X242044Y343382D02*
Y358618D01*
X234426D01*
X231887Y356078D01*
Y351000D01*
X234426Y348461D01*
X242044D01*
X236966D02*
X231887Y343382D01*
X226809D02*
X221730D01*
X224270D01*
Y358618D01*
X226809Y356078D01*
X203956Y358618D02*
X209035Y356078D01*
X214113Y351000D01*
Y345922D01*
X211574Y343382D01*
X206495D01*
X203956Y345922D01*
Y348461D01*
X206495Y351000D01*
X214113D01*
X242044Y319382D02*
Y334618D01*
X234426D01*
X231887Y332078D01*
Y327000D01*
X234426Y324461D01*
X242044D01*
X236966D02*
X231887Y319382D01*
X226809D02*
X221730D01*
X224270D01*
Y334618D01*
X226809Y332078D01*
X206495Y319382D02*
Y334618D01*
X214113Y327000D01*
X203956D01*
X216383Y282854D02*
X231618D01*
Y290472D01*
X229078Y293011D01*
X224000D01*
X221461Y290472D01*
Y282854D01*
Y287933D02*
X216383Y293011D01*
X231618Y308246D02*
X229078Y303168D01*
X224000Y298089D01*
X218922D01*
X216383Y300629D01*
Y305707D01*
X218922Y308246D01*
X221461D01*
X224000Y305707D01*
Y298089D01*
X315887Y381078D02*
X318426Y383618D01*
X323505D01*
X326044Y381078D01*
Y370922D01*
X323505Y368382D01*
X318426D01*
X315887Y370922D01*
X310809Y368382D02*
X305730D01*
X308270D01*
Y383618D01*
X310809Y381078D01*
X287956Y368382D02*
X298113D01*
X287956Y378539D01*
Y381078D01*
X290495Y383618D01*
X295574D01*
X298113Y381078D01*
X363696Y343382D02*
Y358618D01*
X356078D01*
X353539Y356078D01*
Y351000D01*
X356078Y348461D01*
X363696D01*
X358618D02*
X353539Y343382D01*
X348461Y356078D02*
X345922Y358618D01*
X340843D01*
X338304Y356078D01*
Y353539D01*
X340843Y351000D01*
X343382D01*
X340843D01*
X338304Y348461D01*
Y345922D01*
X340843Y343382D01*
X345922D01*
X348461Y345922D01*
X352539Y328078D02*
X355078Y330617D01*
X360157D01*
X362696Y328078D01*
Y317922D01*
X360157Y315382D01*
X355078D01*
X352539Y317922D01*
X339843Y315382D02*
Y330617D01*
X347461Y323000D01*
X337304D01*
X343382Y277304D02*
X358618D01*
Y284922D01*
X356078Y287461D01*
X351000D01*
X348461Y284922D01*
Y277304D01*
Y282383D02*
X343382Y287461D01*
X356078Y292539D02*
X358618Y295078D01*
Y300157D01*
X356078Y302696D01*
X353539D01*
X351000Y300157D01*
X348461Y302696D01*
X345922D01*
X343382Y300157D01*
Y295078D01*
X345922Y292539D01*
X348461D01*
X351000Y295078D01*
X353539Y292539D01*
X356078D01*
X351000Y295078D02*
Y300157D01*
X363348Y260078D02*
X365887Y262617D01*
X370965D01*
X373505Y260078D01*
Y249922D01*
X370965Y247383D01*
X365887D01*
X363348Y249922D01*
X358270Y247383D02*
X353191D01*
X355730D01*
Y262617D01*
X358270Y260078D01*
X345574Y247383D02*
X340495D01*
X343035D01*
Y262617D01*
X345574Y260078D01*
X363539Y237078D02*
X366078Y239618D01*
X371157D01*
X373696Y237078D01*
Y226922D01*
X371157Y224382D01*
X366078D01*
X363539Y226922D01*
X348304Y224382D02*
X358461D01*
X348304Y234539D01*
Y237078D01*
X350843Y239618D01*
X355922D01*
X358461Y237078D01*
X363000Y215078D02*
X365539Y217617D01*
X370617D01*
X373157Y215078D01*
Y204922D01*
X370617Y202383D01*
X365539D01*
X363000Y204922D01*
X357922Y202383D02*
X352843D01*
X355382D01*
Y217617D01*
X357922Y215078D01*
X294382Y109956D02*
X309618D01*
Y117574D01*
X307078Y120113D01*
X302000D01*
X299461Y117574D01*
Y109956D01*
Y115035D02*
X294382Y120113D01*
Y125191D02*
Y130270D01*
Y127730D01*
X309618D01*
X307078Y125191D01*
X294382Y148044D02*
Y137887D01*
X304539Y148044D01*
X307078D01*
X309618Y145505D01*
Y140426D01*
X307078Y137887D01*
X267383Y108956D02*
X282617D01*
Y116574D01*
X280078Y119113D01*
X275000D01*
X272461Y116574D01*
Y108956D01*
Y114035D02*
X267383Y119113D01*
Y124191D02*
Y129270D01*
Y126730D01*
X282617D01*
X280078Y124191D01*
Y136887D02*
X282617Y139426D01*
Y144505D01*
X280078Y147044D01*
X277539D01*
X275000Y144505D01*
Y141966D01*
Y144505D01*
X272461Y147044D01*
X269922D01*
X267383Y144505D01*
Y139426D01*
X269922Y136887D01*
X243382Y108304D02*
X258618D01*
Y115922D01*
X256078Y118461D01*
X251000D01*
X248461Y115922D01*
Y108304D01*
Y113383D02*
X243382Y118461D01*
X258618Y123539D02*
Y133696D01*
X256078D01*
X245922Y123539D01*
X243382D01*
X219382Y108495D02*
X234618D01*
Y116113D01*
X232078Y118652D01*
X227000D01*
X224461Y116113D01*
Y108495D01*
Y113574D02*
X219382Y118652D01*
Y123730D02*
Y128809D01*
Y126270D01*
X234618D01*
X232078Y123730D01*
X219382Y136426D02*
Y141505D01*
Y138966D01*
X234618D01*
X232078Y136426D01*
X161539Y118078D02*
X164078Y120618D01*
X169157D01*
X171696Y118078D01*
Y107922D01*
X169157Y105382D01*
X164078D01*
X161539Y107922D01*
X156461Y120618D02*
X146304D01*
Y118078D01*
X156461Y107922D01*
Y105382D01*
X170696Y127382D02*
Y142618D01*
X163078D01*
X160539Y140078D01*
Y135000D01*
X163078Y132461D01*
X170696D01*
X165618D02*
X160539Y127382D01*
X147843D02*
Y142618D01*
X155461Y135000D01*
X145304D01*
X161539Y162078D02*
X164078Y164618D01*
X169157D01*
X171696Y162078D01*
Y151922D01*
X169157Y149382D01*
X164078D01*
X161539Y151922D01*
X156461Y162078D02*
X153922Y164618D01*
X148843D01*
X146304Y162078D01*
Y159539D01*
X148843Y157000D01*
X151383D01*
X148843D01*
X146304Y154461D01*
Y151922D01*
X148843Y149382D01*
X153922D01*
X156461Y151922D01*
X177696Y365382D02*
Y380617D01*
X170078D01*
X167539Y378078D01*
Y373000D01*
X170078Y370461D01*
X177696D01*
X172617D02*
X167539Y365382D01*
X152304Y380617D02*
X162461D01*
Y373000D01*
X157382Y375539D01*
X154843D01*
X152304Y373000D01*
Y367922D01*
X154843Y365382D01*
X159922D01*
X162461Y367922D01*
X167539Y400078D02*
X170078Y402617D01*
X175157D01*
X177696Y400078D01*
Y389922D01*
X175157Y387383D01*
X170078D01*
X167539Y389922D01*
X162461Y400078D02*
X159922Y402617D01*
X154843D01*
X152304Y400078D01*
Y397539D01*
X154843Y395000D01*
X152304Y392461D01*
Y389922D01*
X154843Y387383D01*
X159922D01*
X162461Y389922D01*
Y392461D01*
X159922Y395000D01*
X162461Y397539D01*
Y400078D01*
X159922Y395000D02*
X154843D01*
X118696Y324383D02*
Y339618D01*
X111078D01*
X108539Y337078D01*
Y332000D01*
X111078Y329461D01*
X118696D01*
X113617D02*
X108539Y324383D01*
X103461Y326922D02*
X100922Y324383D01*
X95843D01*
X93304Y326922D01*
Y337078D01*
X95843Y339618D01*
X100922D01*
X103461Y337078D01*
Y334539D01*
X100922Y332000D01*
X93304D01*
X120157Y237383D02*
Y252617D01*
X112539D01*
X110000Y250078D01*
Y245000D01*
X112539Y242461D01*
X120157D01*
X115078D02*
X110000Y237383D01*
X104922D02*
X99843D01*
X102382D01*
Y252617D01*
X104922Y250078D01*
X119696Y265382D02*
Y280618D01*
X112078D01*
X109539Y278078D01*
Y273000D01*
X112078Y270461D01*
X119696D01*
X114618D02*
X109539Y265382D01*
X94304D02*
X104461D01*
X94304Y275539D01*
Y278078D01*
X96843Y280618D01*
X101922D01*
X104461Y278078D01*
X119044Y300382D02*
Y315618D01*
X111426D01*
X108887Y313078D01*
Y308000D01*
X111426Y305461D01*
X119044D01*
X113966D02*
X108887Y300382D01*
X103809D02*
X98730D01*
X101270D01*
Y315618D01*
X103809Y313078D01*
X91113D02*
X88574Y315618D01*
X83495D01*
X80956Y313078D01*
Y302922D01*
X83495Y300382D01*
X88574D01*
X91113Y302922D01*
Y313078D01*
M02*
