G04*
G04 #@! TF.GenerationSoftware,Altium Limited,Altium Designer,23.3.1 (30)*
G04*
G04 Layer_Color=16711935*
%FSLAX44Y44*%
%MOMM*%
G71*
G04*
G04 #@! TF.SameCoordinates,C8A1A2A4-FEEE-4BAA-8DF6-72F1B62B13C7*
G04*
G04*
G04 #@! TF.FilePolarity,Negative*
G04*
G01*
G75*
%ADD21C,4.2032*%
%ADD40R,3.5032X3.5032*%
%ADD41R,0.7016X0.3316*%
%ADD42R,0.3316X0.7016*%
%ADD43R,0.9032X1.5032*%
%ADD44R,1.5032X0.9032*%
%ADD45R,1.1032X1.5032*%
%ADD46R,1.5032X1.1032*%
%ADD47R,1.1032X1.8032*%
D21*
X450000Y300000D02*
D03*
Y360000D02*
D03*
Y200000D02*
D03*
Y140000D02*
D03*
X50000Y300000D02*
D03*
Y200000D02*
D03*
D40*
X253500Y241000D02*
D03*
D41*
X277500Y258500D02*
D03*
Y253500D02*
D03*
Y248500D02*
D03*
Y243500D02*
D03*
Y238500D02*
D03*
Y233500D02*
D03*
Y228500D02*
D03*
Y223500D02*
D03*
X229500D02*
D03*
Y228500D02*
D03*
Y233500D02*
D03*
Y238500D02*
D03*
Y243500D02*
D03*
Y248500D02*
D03*
Y253500D02*
D03*
Y258500D02*
D03*
D42*
X271000Y217000D02*
D03*
X266000D02*
D03*
X261000D02*
D03*
X256000D02*
D03*
X251000D02*
D03*
X246000D02*
D03*
X241000D02*
D03*
X236000D02*
D03*
Y265000D02*
D03*
X241000D02*
D03*
X246000D02*
D03*
X251000D02*
D03*
X256000D02*
D03*
X261000D02*
D03*
X266000D02*
D03*
X271000D02*
D03*
D43*
X255000Y397005D02*
D03*
X274000D02*
D03*
Y374003D02*
D03*
X255000D02*
D03*
X274000Y351002D02*
D03*
X255000D02*
D03*
X254500Y328000D02*
D03*
X273500D02*
D03*
X322000Y323000D02*
D03*
X303000D02*
D03*
X203000Y218500D02*
D03*
X184000D02*
D03*
X180000Y275000D02*
D03*
X199000D02*
D03*
X159500Y246000D02*
D03*
X140500D02*
D03*
X159500Y275000D02*
D03*
X140500D02*
D03*
X140000Y309000D02*
D03*
X159000D02*
D03*
Y332000D02*
D03*
X140000D02*
D03*
D44*
X245000Y305000D02*
D03*
Y286000D02*
D03*
X320000Y301500D02*
D03*
Y282500D02*
D03*
X327000Y185000D02*
D03*
Y166000D02*
D03*
X301000Y166000D02*
D03*
Y185000D02*
D03*
X276000D02*
D03*
Y166000D02*
D03*
X252000D02*
D03*
Y185000D02*
D03*
X227000Y166000D02*
D03*
Y185000D02*
D03*
D45*
X315000Y351000D02*
D03*
X296000D02*
D03*
X325000Y257000D02*
D03*
X306000D02*
D03*
X307000Y233000D02*
D03*
X326000D02*
D03*
X202000Y193958D02*
D03*
X183000D02*
D03*
X203500Y245000D02*
D03*
X184500D02*
D03*
X182000Y308500D02*
D03*
X201000D02*
D03*
D46*
X292000Y281500D02*
D03*
Y300500D02*
D03*
D47*
X325500Y208000D02*
D03*
X294500D02*
D03*
M02*
