G04*
G04 #@! TF.GenerationSoftware,Altium Limited,Altium Designer,23.3.1 (30)*
G04*
G04 Layer_Color=128*
%FSLAX44Y44*%
%MOMM*%
G71*
G04*
G04 #@! TF.SameCoordinates,C8A1A2A4-FEEE-4BAA-8DF6-72F1B62B13C7*
G04*
G04*
G04 #@! TF.FilePolarity,Positive*
G04*
G01*
G75*
%ADD30R,3.3000X3.3000*%
%ADD31R,0.6000X0.2300*%
%ADD32R,0.2300X0.6000*%
%ADD33R,0.7000X1.3000*%
%ADD34R,1.3000X0.7000*%
%ADD35R,0.9000X1.3000*%
%ADD36R,1.3000X0.9000*%
%ADD37R,0.9000X1.6000*%
D30*
X253500Y241000D02*
D03*
D31*
X277500Y258500D02*
D03*
Y253500D02*
D03*
Y248500D02*
D03*
Y243500D02*
D03*
Y238500D02*
D03*
Y233500D02*
D03*
Y228500D02*
D03*
Y223500D02*
D03*
X229500D02*
D03*
Y228500D02*
D03*
Y233500D02*
D03*
Y238500D02*
D03*
Y243500D02*
D03*
Y248500D02*
D03*
Y253500D02*
D03*
Y258500D02*
D03*
D32*
X271000Y217000D02*
D03*
X266000D02*
D03*
X261000D02*
D03*
X256000D02*
D03*
X251000D02*
D03*
X246000D02*
D03*
X241000D02*
D03*
X236000D02*
D03*
Y265000D02*
D03*
X241000D02*
D03*
X246000D02*
D03*
X251000D02*
D03*
X256000D02*
D03*
X261000D02*
D03*
X266000D02*
D03*
X271000D02*
D03*
D33*
X255000Y397005D02*
D03*
X274000D02*
D03*
Y374003D02*
D03*
X255000D02*
D03*
X274000Y351002D02*
D03*
X255000D02*
D03*
X254500Y328000D02*
D03*
X273500D02*
D03*
X322000Y323000D02*
D03*
X303000D02*
D03*
X203000Y218500D02*
D03*
X184000D02*
D03*
X180000Y275000D02*
D03*
X199000D02*
D03*
X159500Y246000D02*
D03*
X140500D02*
D03*
X159500Y275000D02*
D03*
X140500D02*
D03*
X140000Y309000D02*
D03*
X159000D02*
D03*
Y332000D02*
D03*
X140000D02*
D03*
D34*
X245000Y305000D02*
D03*
Y286000D02*
D03*
X320000Y301500D02*
D03*
Y282500D02*
D03*
X327000Y185000D02*
D03*
Y166000D02*
D03*
X301000Y166000D02*
D03*
Y185000D02*
D03*
X276000D02*
D03*
Y166000D02*
D03*
X252000D02*
D03*
Y185000D02*
D03*
X227000Y166000D02*
D03*
Y185000D02*
D03*
D35*
X315000Y351000D02*
D03*
X296000D02*
D03*
X325000Y257000D02*
D03*
X306000D02*
D03*
X307000Y233000D02*
D03*
X326000D02*
D03*
X202000Y193958D02*
D03*
X183000D02*
D03*
X203500Y245000D02*
D03*
X184500D02*
D03*
X182000Y308500D02*
D03*
X201000D02*
D03*
D36*
X292000Y281500D02*
D03*
Y300500D02*
D03*
D37*
X325500Y208000D02*
D03*
X294500D02*
D03*
M02*
