G04*
G04 #@! TF.GenerationSoftware,Altium Limited,Altium Designer,23.3.1 (30)*
G04*
G04 Layer_Color=65535*
%FSLAX44Y44*%
%MOMM*%
G71*
G04*
G04 #@! TF.SameCoordinates,C8A1A2A4-FEEE-4BAA-8DF6-72F1B62B13C7*
G04*
G04*
G04 #@! TF.FilePolarity,Positive*
G04*
G01*
G75*
%ADD10C,0.2000*%
%ADD11C,0.2540*%
D10*
X142825Y174400D02*
G03*
X149175Y174400I3175J0D01*
G01*
X142825Y414400D02*
G03*
X149175Y414400I3175J0D01*
G01*
X135050Y174400D02*
X142825D01*
X149175D02*
X156950D01*
Y123600D02*
Y174400D01*
X135050Y123600D02*
X156950D01*
X135050D02*
Y174400D01*
Y363600D02*
Y414400D01*
Y363600D02*
X156950D01*
Y414400D01*
X149175D02*
X156950D01*
X135050D02*
X142825D01*
X358000Y120000D02*
Y220000D01*
Y120000D02*
X414000D01*
Y220000D01*
X358000D02*
X414000D01*
X200000Y100000D02*
Y161000D01*
Y100000D02*
X210000Y90000D01*
Y67000D02*
Y90000D01*
X200000Y161000D02*
X210000Y171000D01*
Y193000D01*
X346000Y99000D02*
Y160000D01*
X210000Y193000D02*
X336000D01*
X210000Y67000D02*
X336000D01*
Y170000D02*
X346000Y160000D01*
X336000Y170000D02*
Y193000D01*
Y89000D02*
X346000Y99000D01*
X336000Y67000D02*
Y89000D01*
X142000Y184000D02*
Y216000D01*
X190000D01*
Y184000D02*
Y216000D01*
X142000Y184000D02*
X190000D01*
X142000Y424000D02*
Y456000D01*
X190000D01*
Y424000D02*
Y456000D01*
X142000Y424000D02*
X190000D01*
X210000Y411000D02*
Y433000D01*
X200000Y401000D02*
X210000Y411000D01*
Y307000D02*
Y330000D01*
X200000Y340000D02*
X210000Y330000D01*
Y433000D02*
X336000D01*
X210000Y307000D02*
X336000D01*
X200000Y340000D02*
Y401000D01*
X336000Y307000D02*
Y329000D01*
X346000Y339000D01*
X336000Y410000D02*
Y433000D01*
Y410000D02*
X346000Y400000D01*
Y339000D02*
Y400000D01*
X358000Y280000D02*
X414000D01*
X358000D02*
Y380000D01*
X414000D01*
Y280000D02*
Y380000D01*
X111000Y180000D02*
Y177001D01*
Y178501D01*
X119997D01*
X118498Y180000D01*
X111000Y420000D02*
Y417001D01*
Y418501D01*
X119997D01*
X118498Y420000D01*
D11*
X346000Y112000D02*
X361000D01*
X353000Y105000D02*
Y120000D01*
X419000Y380000D02*
Y395000D01*
X411000Y388000D02*
X426000D01*
X417313Y402508D02*
X427470D01*
X422392Y407587D02*
Y397430D01*
X432548Y394891D02*
X437627D01*
X435088D01*
Y410126D01*
X432548Y407587D01*
X445244Y410126D02*
Y399969D01*
X450323Y394891D01*
X455401Y399969D01*
Y410126D01*
X460479Y407587D02*
X463018Y410126D01*
X468097D01*
X470636Y407587D01*
Y397430D01*
X468097Y394891D01*
X463018D01*
X460479Y397430D01*
Y407587D01*
X485871Y410126D02*
X475714D01*
Y402508D01*
X480793Y405047D01*
X483332D01*
X485871Y402508D01*
Y397430D01*
X483332Y394891D01*
X478254D01*
X475714Y397430D01*
X418540Y101158D02*
X428697D01*
X423618Y106236D02*
Y96079D01*
X433775Y93540D02*
X438853D01*
X436314D01*
Y108775D01*
X433775Y106236D01*
X446471Y108775D02*
Y98618D01*
X451549Y93540D01*
X456628Y98618D01*
Y108775D01*
X471863D02*
X461706D01*
Y101158D01*
X466784Y103697D01*
X469324D01*
X471863Y101158D01*
Y96079D01*
X469324Y93540D01*
X464245D01*
X461706Y96079D01*
X440697Y244236D02*
X438158Y246775D01*
X433079D01*
X430540Y244236D01*
Y234079D01*
X433079Y231540D01*
X438158D01*
X440697Y234079D01*
Y239158D01*
X435618D01*
X445775Y231540D02*
Y246775D01*
X455932Y231540D01*
Y246775D01*
X461010D02*
Y231540D01*
X468628D01*
X471167Y234079D01*
Y244236D01*
X468628Y246775D01*
X461010D01*
X441697Y275236D02*
X439157Y277775D01*
X434079D01*
X431540Y275236D01*
Y265079D01*
X434079Y262540D01*
X439157D01*
X441697Y265079D01*
Y270158D01*
X436618D01*
X446775Y262540D02*
Y277775D01*
X456932Y262540D01*
Y277775D01*
X462010D02*
Y262540D01*
X469628D01*
X472167Y265079D01*
Y275236D01*
X469628Y277775D01*
X462010D01*
X41697Y173236D02*
X39158Y175775D01*
X34079D01*
X31540Y173236D01*
Y163079D01*
X34079Y160540D01*
X39158D01*
X41697Y163079D01*
Y168158D01*
X36618D01*
X46775Y160540D02*
Y175775D01*
X56932Y160540D01*
Y175775D01*
X62010D02*
Y160540D01*
X69628D01*
X72167Y163079D01*
Y173236D01*
X69628Y175775D01*
X62010D01*
X21540Y329157D02*
X31697D01*
X26618Y334236D02*
Y324079D01*
X36775Y336775D02*
Y326618D01*
X41853Y321540D01*
X46932Y326618D01*
Y336775D01*
X52010D02*
X57088D01*
X54549D01*
Y321540D01*
X52010D01*
X57088D01*
X64706D02*
Y336775D01*
X74863Y321540D01*
Y336775D01*
X383461Y243078D02*
X380922Y245618D01*
X375843D01*
X373304Y243078D01*
Y232922D01*
X375843Y230382D01*
X380922D01*
X383461Y232922D01*
X388539D02*
X391078Y230382D01*
X396157D01*
X398696Y232922D01*
Y243078D01*
X396157Y245618D01*
X391078D01*
X388539Y243078D01*
Y240539D01*
X391078Y238000D01*
X398696D01*
X258843Y216618D02*
Y201383D01*
X269000D01*
X274078D02*
X279157D01*
X276618D01*
Y216618D01*
X274078Y214078D01*
X147000Y96922D02*
Y107078D01*
X144461Y109618D01*
X139382D01*
X136843Y107078D01*
Y96922D01*
X139382Y94382D01*
X144461D01*
X141922Y99461D02*
X147000Y94382D01*
X144461D02*
X147000Y96922D01*
X152078Y94382D02*
X157157D01*
X154618D01*
Y109618D01*
X152078Y107078D01*
X162461Y235078D02*
X159922Y237617D01*
X154843D01*
X152304Y235078D01*
Y224922D01*
X154843Y222383D01*
X159922D01*
X162461Y224922D01*
X177696Y237617D02*
X167539D01*
Y230000D01*
X172617Y232539D01*
X175157D01*
X177696Y230000D01*
Y224922D01*
X175157Y222383D01*
X170078D01*
X167539Y224922D01*
X143461Y344922D02*
Y355078D01*
X140922Y357617D01*
X135843D01*
X133304Y355078D01*
Y344922D01*
X135843Y342383D01*
X140922D01*
X138383Y347461D02*
X143461Y342383D01*
X140922D02*
X143461Y344922D01*
X158696Y342383D02*
X148539D01*
X158696Y352539D01*
Y355078D01*
X156157Y357617D01*
X151078D01*
X148539Y355078D01*
X161461Y475078D02*
X158922Y477617D01*
X153843D01*
X151304Y475078D01*
Y464922D01*
X153843Y462383D01*
X158922D01*
X161461Y464922D01*
X176696Y477617D02*
X171618Y475078D01*
X166539Y470000D01*
Y464922D01*
X169078Y462383D01*
X174157D01*
X176696Y464922D01*
Y467461D01*
X174157Y470000D01*
X166539D01*
X260304Y455617D02*
Y440382D01*
X270461D01*
X285696D02*
X275539D01*
X285696Y450539D01*
Y453078D01*
X283157Y455617D01*
X278078D01*
X275539Y453078D01*
X369691Y416680D02*
X367151Y419219D01*
X362073D01*
X359534Y416680D01*
Y406523D01*
X362073Y403984D01*
X367151D01*
X369691Y406523D01*
X374769Y403984D02*
X379847D01*
X377308D01*
Y419219D01*
X374769Y416680D01*
X387465D02*
X390004Y419219D01*
X395083D01*
X397622Y416680D01*
Y406523D01*
X395083Y403984D01*
X390004D01*
X387465Y406523D01*
Y416680D01*
M02*
