G04*
G04 #@! TF.GenerationSoftware,Altium Limited,Altium Designer,23.3.1 (30)*
G04*
G04 Layer_Color=8388736*
%FSLAX44Y44*%
%MOMM*%
G71*
G04*
G04 #@! TF.SameCoordinates,02606407-A08A-443E-84DD-E596A80F92CF*
G04*
G04*
G04 #@! TF.FilePolarity,Negative*
G04*
G01*
G75*
%ADD16C,0.3000*%
%ADD17R,2.3032X0.8032*%
%ADD18R,2.7532X3.9532*%
%ADD19R,4.0532X5.7032*%
%ADD20R,1.1032X2.7032*%
%ADD21C,4.2032*%
D16*
X33157Y55235D02*
X23000D01*
Y47618D01*
X28078D01*
X23000D01*
Y40000D01*
X48392Y55235D02*
X38235D01*
Y40000D01*
X48392D01*
X38235Y47618D02*
X43313D01*
X53470Y55235D02*
Y40000D01*
X61088D01*
X63627Y42539D01*
Y52696D01*
X61088Y55235D01*
X53470D01*
X78862D02*
X68705D01*
Y40000D01*
X78862D01*
X68705Y47618D02*
X73784D01*
X83940Y55235D02*
Y45078D01*
X89019Y40000D01*
X94097Y45078D01*
Y55235D01*
X109332D02*
X99175D01*
Y40000D01*
X109332D01*
X99175Y47618D02*
X104254D01*
X114410Y55235D02*
Y40000D01*
X124567D01*
X155037D02*
X144881D01*
X155037Y50157D01*
Y52696D01*
X152498Y55235D01*
X147420D01*
X144881Y52696D01*
X160116D02*
X162655Y55235D01*
X167733D01*
X170272Y52696D01*
Y42539D01*
X167733Y40000D01*
X162655D01*
X160116Y42539D01*
Y52696D01*
X185508Y40000D02*
X175351D01*
X185508Y50157D01*
Y52696D01*
X182968Y55235D01*
X177890D01*
X175351Y52696D01*
X198203Y40000D02*
Y55235D01*
X190586Y47618D01*
X200742D01*
X23000Y19000D02*
Y29157D01*
X28078Y34235D01*
X33157Y29157D01*
Y19000D01*
Y26618D01*
X23000D01*
X38235Y34235D02*
Y19000D01*
X48392D01*
X53470Y34235D02*
X63627D01*
X58548D01*
Y19000D01*
X68705Y34235D02*
X73784D01*
X71244D01*
Y19000D01*
X68705D01*
X73784D01*
X81401Y34235D02*
Y21539D01*
X83940Y19000D01*
X89019D01*
X91558Y21539D01*
Y34235D01*
X96636Y19000D02*
Y34235D01*
X101714Y29157D01*
X106793Y34235D01*
Y19000D01*
X137263Y34235D02*
X127106D01*
Y19000D01*
X137263D01*
X127106Y26618D02*
X132185D01*
X152498Y31696D02*
X149959Y34235D01*
X144881D01*
X142341Y31696D01*
Y29157D01*
X144881Y26618D01*
X149959D01*
X152498Y24078D01*
Y21539D01*
X149959Y19000D01*
X144881D01*
X142341Y21539D01*
X167733Y31696D02*
X165194Y34235D01*
X160116D01*
X157577Y31696D01*
Y29157D01*
X160116Y26618D01*
X165194D01*
X167733Y24078D01*
Y21539D01*
X165194Y19000D01*
X160116D01*
X157577Y21539D01*
X182968Y34235D02*
X172812D01*
Y19000D01*
X182968D01*
X172812Y26618D02*
X177890D01*
X188047Y19000D02*
Y34235D01*
X198203Y19000D01*
Y34235D01*
X203282D02*
X213438D01*
X208360D01*
Y19000D01*
X218517Y34235D02*
X223595D01*
X221056D01*
Y19000D01*
X218517D01*
X223595D01*
X231213D02*
Y29157D01*
X236291Y34235D01*
X241369Y29157D01*
Y19000D01*
Y26618D01*
X231213D01*
X246448Y34235D02*
Y19000D01*
X256604D01*
D17*
X117000Y168050D02*
D03*
Y155350D02*
D03*
Y142650D02*
D03*
Y129950D02*
D03*
X175000Y168050D02*
D03*
Y155350D02*
D03*
Y142650D02*
D03*
Y129950D02*
D03*
Y369950D02*
D03*
Y382650D02*
D03*
Y395350D02*
D03*
Y408050D02*
D03*
X117000Y369950D02*
D03*
Y382650D02*
D03*
Y395350D02*
D03*
Y408050D02*
D03*
D18*
X386000Y143000D02*
D03*
Y197000D02*
D03*
Y303000D02*
D03*
Y357000D02*
D03*
D19*
X322750Y130000D02*
D03*
X223250D02*
D03*
X322750Y370000D02*
D03*
X223250D02*
D03*
D20*
X181500Y200000D02*
D03*
X150500D02*
D03*
X181500Y440000D02*
D03*
X150500D02*
D03*
D21*
X450000Y300000D02*
D03*
Y360000D02*
D03*
Y200000D02*
D03*
Y140000D02*
D03*
X50000Y300000D02*
D03*
Y200000D02*
D03*
M02*
