G04*
G04 #@! TF.GenerationSoftware,Altium Limited,Altium Designer,23.3.1 (30)*
G04*
G04 Layer_Physical_Order=4*
G04 Layer_Color=16440176*
%FSLAX44Y44*%
%MOMM*%
G71*
G04*
G04 #@! TF.SameCoordinates,02606407-A08A-443E-84DD-E596A80F92CF*
G04*
G04*
G04 #@! TF.FilePolarity,Positive*
G04*
G01*
G75*
%ADD10C,0.2000*%
%ADD23C,4.0000*%
%ADD24C,0.6000*%
D10*
X176828Y251000D02*
X178000Y252172D01*
X155000Y251000D02*
X176828D01*
X150000Y246000D02*
X155000Y251000D01*
X178000Y252172D02*
Y299000D01*
X191000Y312000D02*
X230000D01*
X178000Y299000D02*
X191000Y312000D01*
X252000Y290000D02*
X292000D01*
X230000Y312000D02*
X252000Y290000D01*
X286000Y254000D02*
Y265432D01*
X276000Y244000D02*
X286000Y254000D01*
X276000Y211000D02*
Y244000D01*
X240000Y175000D02*
X276000Y211000D01*
X224000Y175000D02*
X240000D01*
X227000Y193541D02*
Y208000D01*
X224000Y175000D02*
Y190541D01*
X227000Y193541D01*
X219000Y216000D02*
Y244000D01*
Y216000D02*
X227000Y208000D01*
X224000Y287000D02*
Y304000D01*
X230000Y215000D02*
Y281000D01*
X224000Y287000D02*
X230000Y281000D01*
Y215000D02*
X245000Y200000D01*
D23*
X450000Y300000D02*
D03*
Y360000D02*
D03*
Y200000D02*
D03*
Y140000D02*
D03*
X50000Y300000D02*
D03*
Y200000D02*
D03*
D24*
X150000Y246000D02*
D03*
X292000Y290000D02*
D03*
X286000Y265432D02*
D03*
X224000Y175000D02*
D03*
Y304000D02*
D03*
X245000Y200000D02*
D03*
X315000Y360000D02*
D03*
X292000Y310500D02*
D03*
X245000Y315000D02*
D03*
X367500Y209000D02*
D03*
Y184000D02*
D03*
X405000Y209000D02*
D03*
Y184000D02*
D03*
Y290000D02*
D03*
Y315000D02*
D03*
X367500Y290000D02*
D03*
Y315000D02*
D03*
X140000Y395000D02*
D03*
X297500Y232500D02*
D03*
X160000Y290000D02*
D03*
X352000Y360000D02*
D03*
X257000Y279000D02*
D03*
X367000Y142000D02*
D03*
X314000Y185000D02*
D03*
X347000D02*
D03*
X219000Y253000D02*
D03*
Y244000D02*
D03*
X311000Y208000D02*
D03*
X284000Y216000D02*
D03*
X253500Y241000D02*
D03*
X266000Y253000D02*
D03*
X241000D02*
D03*
X242000Y229000D02*
D03*
X265000D02*
D03*
X108000Y130000D02*
D03*
X195159Y227481D02*
D03*
X131000Y371000D02*
D03*
X203000Y155000D02*
D03*
X202000Y182000D02*
D03*
X218000Y202000D02*
D03*
X201000Y345393D02*
D03*
Y321000D02*
D03*
X216000Y288000D02*
D03*
X140000Y169000D02*
D03*
X111175Y143475D02*
D03*
Y156175D02*
D03*
X139945Y199825D02*
D03*
Y439825D02*
D03*
X111175Y383475D02*
D03*
X111000Y396000D02*
D03*
X325000Y337000D02*
D03*
X288000Y397000D02*
D03*
X337000Y208000D02*
D03*
X338000Y233000D02*
D03*
X337000Y258000D02*
D03*
X252000Y157000D02*
D03*
X174000Y245000D02*
D03*
X132000Y246000D02*
D03*
M02*
