G04*
G04 #@! TF.GenerationSoftware,Altium Limited,Altium Designer,23.3.1 (30)*
G04*
G04 Layer_Physical_Order=3*
G04 Layer_Color=36540*
%FSLAX44Y44*%
%MOMM*%
G71*
G04*
G04 #@! TF.SameCoordinates,02606407-A08A-443E-84DD-E596A80F92CF*
G04*
G04*
G04 #@! TF.FilePolarity,Positive*
G04*
G01*
G75*
%ADD22C,0.5000*%
%ADD23C,4.0000*%
%ADD24C,0.6000*%
D22*
X158500Y238500D02*
X161000Y236000D01*
X132000Y246000D02*
X139500Y238500D01*
X158500D01*
X161000Y236000D02*
X217000D01*
X140191Y169191D02*
X150191D01*
X173809Y192809D01*
X214880D01*
X140000Y169000D02*
X140191Y169191D01*
X216000Y288000D02*
Y369000D01*
X190000Y395000D02*
X216000Y369000D01*
X245000Y208000D02*
X311000D01*
X217000Y236000D02*
X245000Y208000D01*
X140000Y395000D02*
X190000D01*
X260929Y360000D02*
X352000D01*
X257000Y356071D02*
X260929Y360000D01*
X257000Y279000D02*
Y356071D01*
X368000Y154635D02*
Y166000D01*
X367000Y142000D02*
Y153635D01*
X368000Y154635D01*
X365000Y169000D02*
X368000Y166000D01*
X331000Y185000D02*
X347000Y169000D01*
X365000D01*
X314000Y185000D02*
X331000D01*
X212000Y253000D02*
X219000D01*
X190000Y275000D02*
X212000Y253000D01*
X101000Y134694D02*
Y201000D01*
Y134694D02*
X104929Y130765D01*
X101000Y201000D02*
X127481Y227481D01*
X104929Y130765D02*
X106964D01*
X107729Y130000D02*
X108000D01*
X106964Y130765D02*
X107729Y130000D01*
X127481Y227481D02*
X195159D01*
X190000Y275000D02*
Y339000D01*
X131000Y371000D02*
X158000D01*
X190000Y339000D01*
X203000Y155000D02*
Y155271D01*
X202000Y156271D02*
X203000Y155271D01*
X202000Y156271D02*
Y182000D01*
X217809Y195738D02*
Y201809D01*
X214880Y192809D02*
X217809Y195738D01*
Y201809D02*
X218000Y202000D01*
X201000Y321000D02*
Y345393D01*
D23*
X450000Y300000D02*
D03*
Y360000D02*
D03*
Y200000D02*
D03*
Y140000D02*
D03*
X50000Y300000D02*
D03*
Y200000D02*
D03*
D24*
X150000Y246000D02*
D03*
X292000Y290000D02*
D03*
X286000Y265432D02*
D03*
X224000Y175000D02*
D03*
Y304000D02*
D03*
X245000Y200000D02*
D03*
X315000Y360000D02*
D03*
X292000Y310500D02*
D03*
X245000Y315000D02*
D03*
X367500Y209000D02*
D03*
Y184000D02*
D03*
X405000Y209000D02*
D03*
Y184000D02*
D03*
Y290000D02*
D03*
Y315000D02*
D03*
X367500Y290000D02*
D03*
Y315000D02*
D03*
X140000Y395000D02*
D03*
X297500Y232500D02*
D03*
X160000Y290000D02*
D03*
X352000Y360000D02*
D03*
X257000Y279000D02*
D03*
X367000Y142000D02*
D03*
X314000Y185000D02*
D03*
X347000D02*
D03*
X219000Y253000D02*
D03*
Y244000D02*
D03*
X311000Y208000D02*
D03*
X284000Y216000D02*
D03*
X253500Y241000D02*
D03*
X266000Y253000D02*
D03*
X241000D02*
D03*
X242000Y229000D02*
D03*
X265000D02*
D03*
X108000Y130000D02*
D03*
X195159Y227481D02*
D03*
X131000Y371000D02*
D03*
X203000Y155000D02*
D03*
X202000Y182000D02*
D03*
X218000Y202000D02*
D03*
X201000Y345393D02*
D03*
Y321000D02*
D03*
X216000Y288000D02*
D03*
X140000Y169000D02*
D03*
X111175Y143475D02*
D03*
Y156175D02*
D03*
X139945Y199825D02*
D03*
Y439825D02*
D03*
X111175Y383475D02*
D03*
X111000Y396000D02*
D03*
X325000Y337000D02*
D03*
X288000Y397000D02*
D03*
X337000Y208000D02*
D03*
X338000Y233000D02*
D03*
X337000Y258000D02*
D03*
X252000Y157000D02*
D03*
X174000Y245000D02*
D03*
X132000Y246000D02*
D03*
M02*
