G04*
G04 #@! TF.GenerationSoftware,Altium Limited,Altium Designer,23.3.1 (30)*
G04*
G04 Layer_Physical_Order=6*
G04 Layer_Color=16711680*
%FSLAX44Y44*%
%MOMM*%
G71*
G04*
G04 #@! TF.SameCoordinates,02606407-A08A-443E-84DD-E596A80F92CF*
G04*
G04*
G04 #@! TF.FilePolarity,Positive*
G04*
G01*
G75*
%ADD10C,0.2000*%
%ADD22C,0.5000*%
%ADD23C,4.0000*%
%ADD24C,0.6000*%
%ADD30R,3.3000X3.3000*%
%ADD31R,0.6000X0.2300*%
%ADD32R,0.2300X0.6000*%
%ADD33R,0.7000X1.3000*%
%ADD34R,1.3000X0.7000*%
%ADD35R,0.9000X1.3000*%
%ADD36R,1.3000X0.9000*%
%ADD37R,0.9000X1.6000*%
%ADD38C,0.2500*%
%ADD39C,0.7500*%
D10*
X150000Y246000D02*
X159500D01*
X292000Y281500D02*
Y290000D01*
X322533Y285000D02*
Y294967D01*
X286000Y265432D02*
Y272257D01*
Y258607D02*
Y265432D01*
X292000Y258172D02*
Y281500D01*
X296000Y266000D02*
X304000Y274000D01*
X283500Y243500D02*
X296000Y256000D01*
X282328Y248500D02*
X292000Y258172D01*
X296000Y256000D02*
Y266000D01*
X277500Y243500D02*
X283500D01*
X304000Y274000D02*
X320000D01*
X277500Y248500D02*
X282328D01*
X226500Y166000D02*
X227000D01*
X224000Y168500D02*
X226500Y166000D01*
X224000Y168500D02*
Y175000D01*
X224423Y304423D02*
Y314323D01*
X224000Y304000D02*
X224423Y304423D01*
X224000Y287101D02*
Y304000D01*
Y287101D02*
X236101Y275000D01*
X211746Y327000D02*
X224423Y314323D01*
X232665Y196150D02*
X245970Y209455D01*
Y217000D01*
X229291Y196150D02*
X232665D01*
X252000Y201621D02*
X255500Y205121D01*
X252000Y185000D02*
Y201621D01*
X255500Y205121D02*
Y209811D01*
X245000Y202343D02*
X251000Y208343D01*
X245000Y200000D02*
Y202343D01*
X277500Y258500D02*
Y318000D01*
X182000Y277000D02*
Y308500D01*
X180000Y275000D02*
X182000Y277000D01*
X277500Y233500D02*
X292500D01*
X292500Y233500D01*
X294500Y208000D02*
Y218500D01*
X277500Y228500D02*
X284500D01*
X294500Y218500D01*
X308481Y338519D02*
X312963Y334037D01*
X304000Y343000D02*
X308481Y338519D01*
X296000Y334000D02*
X300519Y338519D01*
X308481D01*
X282500Y311500D02*
X296000Y325000D01*
Y334000D01*
X282500Y275757D02*
Y311500D01*
Y275757D02*
X286000Y272257D01*
X266000Y265000D02*
Y284000D01*
X264000Y286000D02*
X266000Y284000D01*
X245000Y286000D02*
X264000D01*
X257000Y274000D02*
Y275000D01*
X261000Y265000D02*
Y270000D01*
X257000Y274000D02*
X261000Y270000D01*
X274000Y318000D02*
X277500D01*
X281000D01*
X277650Y253650D02*
X281043D01*
X286000Y258607D01*
X277500Y253500D02*
X277650Y253650D01*
X292000Y281500D02*
X300500D01*
X303000Y284000D02*
Y323000D01*
X300500Y281500D02*
X303000Y284000D01*
X312963Y324037D02*
Y334037D01*
X304000Y343000D02*
Y362828D01*
X302828Y364000D02*
X304000Y362828D01*
X322000Y303500D02*
Y323000D01*
X312963Y324037D02*
X314000Y323000D01*
X322000D01*
X320000Y301500D02*
X322000Y303500D01*
X286000Y364000D02*
X302828D01*
X285828Y364172D02*
X286000Y364000D01*
X284170Y364172D02*
X285828D01*
X274000Y354002D02*
X284170Y364172D01*
X274000Y351002D02*
Y354002D01*
X320033Y282500D02*
X322533Y285000D01*
X320000Y282500D02*
X320033D01*
X322533Y276533D02*
Y280000D01*
X320033Y282500D02*
X322533Y280000D01*
X320000Y274000D02*
X322533Y276533D01*
X330500Y185000D02*
X347000D01*
X266000Y212000D02*
X271000Y207000D01*
X266000Y212000D02*
Y217000D01*
X261000Y205000D02*
Y217000D01*
X294500Y207829D02*
X294671Y208000D01*
X219000Y253000D02*
X219500Y253500D01*
X229500D01*
X201500Y269767D02*
X212383D01*
X223650Y258500D02*
X229500D01*
X212383Y269767D02*
X223650Y258500D01*
X219000Y244000D02*
X224350Y238650D01*
X229350D02*
X229500Y238500D01*
X224350Y238650D02*
X229350D01*
X207500Y232500D02*
X225105D01*
X227120Y185119D02*
Y193978D01*
X229291Y196150D01*
X251000Y208343D02*
Y217000D01*
X256000Y210311D02*
Y217000D01*
X255500Y209811D02*
X256000Y210311D01*
X300232Y176596D02*
X300739Y176090D01*
X300672Y185329D02*
X301000Y185000D01*
X294671Y208000D02*
X311000D01*
X277500Y219300D02*
X280157Y216643D01*
X283357D01*
X284000Y216000D01*
X277500Y219300D02*
Y223500D01*
X218000Y202000D02*
X229393D01*
X240850Y213457D01*
X229500Y243500D02*
X238000D01*
X252000Y166000D02*
Y167500D01*
Y157000D02*
Y166000D01*
X229500Y248500D02*
X239000D01*
X195678Y228000D02*
X210000D01*
X210000Y228000D01*
X195159Y227481D02*
X195678Y228000D01*
X204328Y235672D02*
X207500Y232500D01*
X210000Y228000D02*
X210500Y228500D01*
X227850D01*
X210500Y218500D02*
X214500Y222500D01*
X203000Y218500D02*
X210500D01*
X214500Y222500D02*
X221989D01*
X222989Y223500D01*
X229500D01*
X227850Y228500D02*
X228000Y228350D01*
X228150Y228500D02*
X229500D01*
X228000Y228350D02*
X228150Y228500D01*
X225105Y232500D02*
X225955Y233350D01*
X220000Y332000D02*
X232234Y319766D01*
X159000Y332000D02*
X220000D01*
X164328Y310329D02*
X181000Y327000D01*
X211746D01*
X232234Y284523D02*
Y319766D01*
Y284523D02*
X237757Y279000D01*
X227000Y265000D02*
X236000D01*
X217000Y287000D02*
X233000Y271000D01*
X216000Y288000D02*
Y298267D01*
X199000Y272267D02*
X201500Y269767D01*
X199000Y272267D02*
Y275000D01*
X233000Y271000D02*
X238393D01*
X237757Y279000D02*
X241706D01*
X236101Y275000D02*
X240049D01*
X256000Y256000D02*
Y265000D01*
X238393Y271000D02*
X240850Y268543D01*
Y265150D02*
Y268543D01*
X240049Y275000D02*
X245850Y269200D01*
Y265150D02*
Y269200D01*
Y265150D02*
X246000Y265000D01*
X241706Y279000D02*
X250850Y269856D01*
Y265150D02*
Y269856D01*
X160329Y310329D02*
X164328D01*
X159000Y309000D02*
X160329Y310329D01*
X240850Y213457D02*
Y216850D01*
X241000Y217000D01*
X230809Y215000D02*
X235850D01*
X236000Y215150D01*
Y217000D01*
X250850Y265150D02*
X251000Y265000D01*
X240850Y265150D02*
X241000Y265000D01*
X225955Y233350D02*
X229350D01*
X229500Y233500D01*
X286000Y332328D02*
X296000Y342328D01*
X274000Y318000D02*
Y327500D01*
X273500Y328000D02*
X274000Y327500D01*
X325000Y337000D02*
Y339000D01*
X315000Y349000D02*
X325000Y339000D01*
X287995Y397005D02*
X288000Y397000D01*
X274000Y397005D02*
X287995D01*
X315000Y349000D02*
Y351000D01*
X325000Y257000D02*
X326000Y258000D01*
X174000Y245000D02*
X184500D01*
X296000Y342328D02*
Y351000D01*
X286000Y323000D02*
Y332328D01*
X281000Y318000D02*
X286000Y323000D01*
X296000Y351000D02*
X296000Y351000D01*
X183000Y193958D02*
X184000Y194958D01*
Y218500D01*
X132000Y246000D02*
X140500D01*
D22*
X203500Y245000D02*
X204500Y244000D01*
X218729D01*
X204328Y245000D02*
Y255672D01*
Y235672D02*
Y245000D01*
X203500D02*
X204328D01*
X263000Y176000D02*
X273000Y166000D01*
X234929Y176000D02*
X263000D01*
X273000Y166000D02*
X276000D01*
X228000Y167000D02*
Y169071D01*
X234929Y176000D01*
X227000Y166000D02*
X228000Y167000D01*
X315000Y350000D02*
Y360000D01*
X292000Y300500D02*
Y310500D01*
X245000Y305000D02*
Y315000D01*
X293309Y232691D02*
X297309D01*
X292500Y233500D02*
X293309Y232691D01*
X306691D02*
X307000Y233000D01*
X297691Y232691D02*
X306691D01*
X297500Y232500D02*
X297691Y232691D01*
X297309D02*
X297500Y232500D01*
X159500Y289229D02*
X160000Y289729D01*
Y290000D01*
X159500Y275000D02*
Y289229D01*
X140000Y275500D02*
Y332000D01*
X140500Y264240D02*
Y275000D01*
Y264240D02*
X142740Y262000D01*
X198000D02*
X204328Y255672D01*
X140000Y275500D02*
X140500Y275000D01*
X142740Y262000D02*
X198000D01*
X257000Y275000D02*
Y279000D01*
X313000Y185000D02*
X314000D01*
X313000Y185000D02*
X313000Y185000D01*
X301000Y185000D02*
X313000D01*
X271000Y207000D02*
X292672Y185329D01*
X300672D01*
X274197Y185000D02*
X276000D01*
X273197Y186000D02*
Y192803D01*
X261000Y205000D02*
X273197Y192803D01*
Y186000D02*
X274197Y185000D01*
X274000Y183000D02*
X276000Y185000D01*
X277910Y176090D02*
X300739D01*
X274000Y180000D02*
Y183000D01*
Y180000D02*
X277910Y176090D01*
X323554Y167000D02*
X324554Y166000D01*
X327000D01*
X323554Y167000D02*
Y173161D01*
X320625Y176090D02*
X323554Y173161D01*
X300910Y176090D02*
X320625D01*
X300910Y166090D02*
Y176090D01*
X202000Y182000D02*
Y193958D01*
X201000Y308500D02*
Y321000D01*
Y291000D02*
Y308500D01*
Y291000D02*
X227000Y265000D01*
D23*
X450000Y300000D02*
D03*
Y360000D02*
D03*
Y200000D02*
D03*
Y140000D02*
D03*
X50000Y300000D02*
D03*
Y200000D02*
D03*
D24*
X150000Y246000D02*
D03*
X292000Y290000D02*
D03*
X286000Y265432D02*
D03*
X224000Y175000D02*
D03*
Y304000D02*
D03*
X245000Y200000D02*
D03*
X315000Y360000D02*
D03*
X292000Y310500D02*
D03*
X245000Y315000D02*
D03*
X367500Y209000D02*
D03*
Y184000D02*
D03*
X405000Y209000D02*
D03*
Y184000D02*
D03*
Y290000D02*
D03*
Y315000D02*
D03*
X367500Y290000D02*
D03*
Y315000D02*
D03*
X140000Y395000D02*
D03*
X297500Y232500D02*
D03*
X160000Y290000D02*
D03*
X352000Y360000D02*
D03*
X257000Y279000D02*
D03*
X367000Y142000D02*
D03*
X314000Y185000D02*
D03*
X347000D02*
D03*
X219000Y253000D02*
D03*
Y244000D02*
D03*
X311000Y208000D02*
D03*
X284000Y216000D02*
D03*
X253500Y241000D02*
D03*
X266000Y253000D02*
D03*
X241000D02*
D03*
X242000Y229000D02*
D03*
X265000D02*
D03*
X108000Y130000D02*
D03*
X195159Y227481D02*
D03*
X131000Y371000D02*
D03*
X203000Y155000D02*
D03*
X202000Y182000D02*
D03*
X218000Y202000D02*
D03*
X201000Y345393D02*
D03*
Y321000D02*
D03*
X216000Y288000D02*
D03*
X140000Y169000D02*
D03*
X111175Y143475D02*
D03*
Y156175D02*
D03*
X139945Y199825D02*
D03*
Y439825D02*
D03*
X111175Y383475D02*
D03*
X111000Y396000D02*
D03*
X325000Y337000D02*
D03*
X288000Y397000D02*
D03*
X337000Y208000D02*
D03*
X338000Y233000D02*
D03*
X337000Y258000D02*
D03*
X252000Y157000D02*
D03*
X174000Y245000D02*
D03*
X132000Y246000D02*
D03*
D30*
X253500Y241000D02*
D03*
D31*
X277500Y258500D02*
D03*
Y253500D02*
D03*
Y248500D02*
D03*
Y243500D02*
D03*
Y238500D02*
D03*
Y233500D02*
D03*
Y228500D02*
D03*
Y223500D02*
D03*
X229500D02*
D03*
Y228500D02*
D03*
Y233500D02*
D03*
Y238500D02*
D03*
Y243500D02*
D03*
Y248500D02*
D03*
Y253500D02*
D03*
Y258500D02*
D03*
D32*
X271000Y217000D02*
D03*
X266000D02*
D03*
X261000D02*
D03*
X256000D02*
D03*
X251000D02*
D03*
X246000D02*
D03*
X241000D02*
D03*
X236000D02*
D03*
Y265000D02*
D03*
X241000D02*
D03*
X246000D02*
D03*
X251000D02*
D03*
X256000D02*
D03*
X261000D02*
D03*
X266000D02*
D03*
X271000D02*
D03*
D33*
X255000Y397005D02*
D03*
X274000D02*
D03*
Y374003D02*
D03*
X255000D02*
D03*
X274000Y351002D02*
D03*
X255000D02*
D03*
X254500Y328000D02*
D03*
X273500D02*
D03*
X322000Y323000D02*
D03*
X303000D02*
D03*
X203000Y218500D02*
D03*
X184000D02*
D03*
X180000Y275000D02*
D03*
X199000D02*
D03*
X159500Y246000D02*
D03*
X140500D02*
D03*
X159500Y275000D02*
D03*
X140500D02*
D03*
X140000Y309000D02*
D03*
X159000D02*
D03*
Y332000D02*
D03*
X140000D02*
D03*
D34*
X245000Y305000D02*
D03*
Y286000D02*
D03*
X320000Y301500D02*
D03*
Y282500D02*
D03*
X327000Y185000D02*
D03*
Y166000D02*
D03*
X301000Y166000D02*
D03*
Y185000D02*
D03*
X276000D02*
D03*
Y166000D02*
D03*
X252000D02*
D03*
Y185000D02*
D03*
X227000Y166000D02*
D03*
Y185000D02*
D03*
D35*
X315000Y351000D02*
D03*
X296000D02*
D03*
X325000Y257000D02*
D03*
X306000D02*
D03*
X307000Y233000D02*
D03*
X326000D02*
D03*
X202000Y193958D02*
D03*
X183000D02*
D03*
X203500Y245000D02*
D03*
X184500D02*
D03*
X182000Y308500D02*
D03*
X201000D02*
D03*
D36*
X292000Y281500D02*
D03*
Y300500D02*
D03*
D37*
X325500Y208000D02*
D03*
X294500D02*
D03*
D38*
X324000Y373000D02*
X335000Y362000D01*
Y275172D02*
Y362000D01*
X287500Y238500D02*
X300750Y251750D01*
X302750D01*
X306000Y255000D01*
X254500Y311500D02*
Y328000D01*
Y311500D02*
X271000Y295000D01*
Y265000D02*
Y295000D01*
X277500Y238500D02*
X287500D01*
X306000Y255000D02*
Y267328D01*
X328328Y268500D02*
X335000Y275172D01*
X306000Y267328D02*
X307172Y268500D01*
X328328D01*
X216000Y215000D02*
X230809D01*
X203743Y202743D02*
X216000Y215000D01*
X202000Y182000D02*
X202000Y182000D01*
X203743Y195700D02*
Y202743D01*
X202000Y193958D02*
X203743Y195700D01*
X255000Y328500D02*
Y351002D01*
Y374003D01*
X254500Y328000D02*
X255000Y328500D01*
X275003Y373000D02*
X324000D01*
X274000Y374003D02*
X275003Y373000D01*
X255000Y374003D02*
Y397005D01*
D39*
X326000Y258000D02*
X337000D01*
X326000Y233000D02*
X338000D01*
X325500Y208000D02*
X337000D01*
M02*
