G04*
G04 #@! TF.GenerationSoftware,Altium Limited,Altium Designer,23.3.1 (30)*
G04*
G04 Layer_Physical_Order=1*
G04 Layer_Color=255*
%FSLAX44Y44*%
%MOMM*%
G71*
G04*
G04 #@! TF.SameCoordinates,02606407-A08A-443E-84DD-E596A80F92CF*
G04*
G04*
G04 #@! TF.FilePolarity,Positive*
G04*
G01*
G75*
%ADD10C,0.2000*%
%ADD11C,0.2540*%
%ADD12R,2.1000X0.6000*%
%ADD13R,2.5500X3.7500*%
%ADD14R,3.8500X5.5000*%
%ADD15R,0.9000X2.5000*%
%ADD22C,0.5000*%
%ADD23C,4.0000*%
%ADD24C,0.6000*%
G36*
X187500Y450000D02*
Y420000D01*
X180000Y412500D01*
Y407500D01*
X177500Y405000D01*
X136489D01*
X129700Y411789D01*
Y413845D01*
X113760D01*
Y405000D01*
X85000D01*
X75000Y395000D01*
Y320000D01*
X77500Y317500D01*
X165000D01*
X170000Y312500D01*
Y248071D01*
X169761Y247832D01*
X169000Y245995D01*
Y244005D01*
X169761Y242168D01*
X170000Y241929D01*
Y217500D01*
X175000Y212500D01*
X280429D01*
X281168Y211761D01*
X283005Y211000D01*
X284995D01*
X286832Y211761D01*
X288239Y213168D01*
X289000Y215005D01*
Y216500D01*
X292500Y220000D01*
Y242500D01*
X295000Y245000D01*
X307500D01*
X310000Y242500D01*
X307500Y240000D01*
Y211571D01*
X306761Y210832D01*
X306000Y208995D01*
Y207005D01*
X306761Y205168D01*
X307500Y204429D01*
Y192500D01*
X300000Y185000D01*
X206071D01*
X204832Y186239D01*
X202995Y187000D01*
X201005D01*
X199168Y186239D01*
X197929Y185000D01*
X182500D01*
X180000Y182500D01*
Y167500D01*
X177500Y165000D01*
X165000D01*
X155000Y175000D01*
Y185500D01*
X157000D01*
Y214500D01*
X155000D01*
Y240000D01*
X120000Y275000D01*
X27500D01*
X22500Y280000D01*
Y405000D01*
X70000Y452500D01*
X144000D01*
Y444637D01*
X142777Y444064D01*
X140940Y444825D01*
X138950D01*
X137113Y444064D01*
X135706Y442657D01*
X134945Y440820D01*
Y438830D01*
X135706Y436993D01*
X137113Y435586D01*
X138950Y434825D01*
X140940D01*
X142777Y435586D01*
X142827Y435636D01*
X144000Y435150D01*
Y425500D01*
X157000D01*
Y452500D01*
X185000D01*
X187500Y450000D01*
D02*
G37*
G36*
X243000Y342000D02*
X191000D01*
X166000Y367000D01*
Y399080D01*
X166148Y399438D01*
X243000D01*
Y342000D01*
D02*
G37*
G36*
X363000Y376000D02*
X400000D01*
X409000Y385000D01*
X467000D01*
X477000Y375000D01*
Y344000D01*
X468000Y335000D01*
X404000D01*
X399000Y340000D01*
X345000D01*
X342000Y343000D01*
X304000D01*
Y398000D01*
X341000D01*
X363000Y376000D01*
D02*
G37*
G36*
X410000Y282500D02*
X362500D01*
Y325000D01*
X410000D01*
Y282500D01*
D02*
G37*
G36*
Y176500D02*
X362500D01*
Y219000D01*
X410000D01*
Y176500D01*
D02*
G37*
G36*
X477000Y156000D02*
Y125000D01*
X467000Y115000D01*
X409000D01*
X400000Y124000D01*
X363000D01*
X341000Y102000D01*
X304000D01*
Y157000D01*
X342000D01*
X345000Y160000D01*
X399000D01*
X404000Y165000D01*
X468000D01*
X477000Y156000D01*
D02*
G37*
G36*
X245000Y100000D02*
X202000D01*
X175000Y127000D01*
X165000D01*
Y160000D01*
X245000D01*
Y100000D01*
D02*
G37*
%LPC*%
G36*
X218995Y207000D02*
X217005D01*
X215168Y206239D01*
X213761Y204832D01*
X213000Y202995D01*
Y201005D01*
X213761Y199168D01*
X215168Y197761D01*
X217005Y197000D01*
X218995D01*
X220832Y197761D01*
X222239Y199168D01*
X223000Y201005D01*
Y202995D01*
X222239Y204832D01*
X220832Y206239D01*
X218995Y207000D01*
D02*
G37*
%LPD*%
D10*
X140120Y440000D02*
X150500D01*
X140120Y200000D02*
X150500D01*
D11*
X22540Y18540D02*
Y28697D01*
X27618Y33775D01*
X32697Y28697D01*
Y18540D01*
Y26158D01*
X22540D01*
X37775Y33775D02*
Y18540D01*
X47932D01*
X53010Y33775D02*
X63167D01*
X58088D01*
Y18540D01*
X68245Y33775D02*
X73324D01*
X70784D01*
Y18540D01*
X68245D01*
X73324D01*
X80941Y33775D02*
Y21079D01*
X83480Y18540D01*
X88559D01*
X91098Y21079D01*
Y33775D01*
X96176Y18540D02*
Y33775D01*
X101255Y28697D01*
X106333Y33775D01*
Y18540D01*
X136803Y33775D02*
X126646D01*
Y18540D01*
X136803D01*
X126646Y26158D02*
X131725D01*
X152038Y31236D02*
X149499Y33775D01*
X144421D01*
X141881Y31236D01*
Y28697D01*
X144421Y26158D01*
X149499D01*
X152038Y23618D01*
Y21079D01*
X149499Y18540D01*
X144421D01*
X141881Y21079D01*
X167273Y31236D02*
X164734Y33775D01*
X159656D01*
X157116Y31236D01*
Y28697D01*
X159656Y26158D01*
X164734D01*
X167273Y23618D01*
Y21079D01*
X164734Y18540D01*
X159656D01*
X157116Y21079D01*
X182508Y33775D02*
X172351D01*
Y18540D01*
X182508D01*
X172351Y26158D02*
X177430D01*
X187587Y18540D02*
Y33775D01*
X197743Y18540D01*
Y33775D01*
X202822D02*
X212978D01*
X207900D01*
Y18540D01*
X218057Y33775D02*
X223135D01*
X220596D01*
Y18540D01*
X218057D01*
X223135D01*
X230753D02*
Y28697D01*
X235831Y33775D01*
X240909Y28697D01*
Y18540D01*
Y26158D01*
X230753D01*
X245988Y33775D02*
Y18540D01*
X256144D01*
X32697Y54775D02*
X22540D01*
Y47158D01*
X27618D01*
X22540D01*
Y39540D01*
X47932Y54775D02*
X37775D01*
Y39540D01*
X47932D01*
X37775Y47158D02*
X42853D01*
X53010Y54775D02*
Y39540D01*
X60628D01*
X63167Y42079D01*
Y52236D01*
X60628Y54775D01*
X53010D01*
X78402D02*
X68245D01*
Y39540D01*
X78402D01*
X68245Y47158D02*
X73324D01*
X83480Y54775D02*
Y44618D01*
X88559Y39540D01*
X93637Y44618D01*
Y54775D01*
X108872D02*
X98715D01*
Y39540D01*
X108872D01*
X98715Y47158D02*
X103794D01*
X113950Y54775D02*
Y39540D01*
X124107D01*
X154577D02*
X144421D01*
X154577Y49697D01*
Y52236D01*
X152038Y54775D01*
X146960D01*
X144421Y52236D01*
X159656D02*
X162195Y54775D01*
X167273D01*
X169812Y52236D01*
Y42079D01*
X167273Y39540D01*
X162195D01*
X159656Y42079D01*
Y52236D01*
X185047Y39540D02*
X174891D01*
X185047Y49697D01*
Y52236D01*
X182508Y54775D01*
X177430D01*
X174891Y52236D01*
X197743Y39540D02*
Y54775D01*
X190126Y47158D01*
X200282D01*
D12*
X117000Y168050D02*
D03*
Y155350D02*
D03*
Y142650D02*
D03*
Y129950D02*
D03*
X175000Y168050D02*
D03*
Y155350D02*
D03*
Y142650D02*
D03*
Y129950D02*
D03*
Y369950D02*
D03*
Y382650D02*
D03*
Y395350D02*
D03*
Y408050D02*
D03*
X117000Y369950D02*
D03*
Y382650D02*
D03*
Y395350D02*
D03*
Y408050D02*
D03*
D13*
X386000Y143000D02*
D03*
Y197000D02*
D03*
Y303000D02*
D03*
Y357000D02*
D03*
D14*
X322750Y130000D02*
D03*
X223250D02*
D03*
X322750Y370000D02*
D03*
X223250D02*
D03*
D15*
X181500Y200000D02*
D03*
X150500D02*
D03*
X181500Y440000D02*
D03*
X150500D02*
D03*
D22*
X139729Y169000D02*
X140000D01*
X138779Y168050D02*
X139729Y169000D01*
X117000Y168050D02*
X138779D01*
X130729Y371000D02*
X131000D01*
X130179Y370450D02*
X130729Y371000D01*
X117500Y370450D02*
X130179D01*
X117000Y369950D02*
X117500Y370450D01*
X139809Y395191D02*
X140000Y395000D01*
X137359Y395191D02*
X139809D01*
X124500Y408050D02*
X137359Y395191D01*
X117000Y408050D02*
X124500D01*
D23*
X450000Y300000D02*
D03*
Y360000D02*
D03*
Y200000D02*
D03*
Y140000D02*
D03*
X50000Y300000D02*
D03*
Y200000D02*
D03*
D24*
X150000Y246000D02*
D03*
X292000Y290000D02*
D03*
X286000Y265432D02*
D03*
X224000Y175000D02*
D03*
Y304000D02*
D03*
X245000Y200000D02*
D03*
X315000Y360000D02*
D03*
X292000Y310500D02*
D03*
X245000Y315000D02*
D03*
X367500Y209000D02*
D03*
Y184000D02*
D03*
X405000Y209000D02*
D03*
Y184000D02*
D03*
Y290000D02*
D03*
Y315000D02*
D03*
X367500Y290000D02*
D03*
Y315000D02*
D03*
X140000Y395000D02*
D03*
X297500Y232500D02*
D03*
X160000Y290000D02*
D03*
X352000Y360000D02*
D03*
X257000Y279000D02*
D03*
X367000Y142000D02*
D03*
X314000Y185000D02*
D03*
X347000D02*
D03*
X219000Y253000D02*
D03*
Y244000D02*
D03*
X311000Y208000D02*
D03*
X284000Y216000D02*
D03*
X253500Y241000D02*
D03*
X266000Y253000D02*
D03*
X241000D02*
D03*
X242000Y229000D02*
D03*
X265000D02*
D03*
X108000Y130000D02*
D03*
X195159Y227481D02*
D03*
X131000Y371000D02*
D03*
X203000Y155000D02*
D03*
X202000Y182000D02*
D03*
X218000Y202000D02*
D03*
X201000Y345393D02*
D03*
Y321000D02*
D03*
X216000Y288000D02*
D03*
X140000Y169000D02*
D03*
X111175Y143475D02*
D03*
Y156175D02*
D03*
X139945Y199825D02*
D03*
Y439825D02*
D03*
X111175Y383475D02*
D03*
X111000Y396000D02*
D03*
X325000Y337000D02*
D03*
X288000Y397000D02*
D03*
X337000Y208000D02*
D03*
X338000Y233000D02*
D03*
X337000Y258000D02*
D03*
X252000Y157000D02*
D03*
X174000Y245000D02*
D03*
X132000Y246000D02*
D03*
M02*
